<?xml version='1.0' encoding='utf-8'?>
<svg xmlns="http://www.w3.org/2000/svg" width="269.21042mm" height="166.04892mm" viewBox="0 0 763.11615 470.68984"><title>sembrando - siembra</title><g style="isolation:isolate"><g id="e04737f8-5f41-4308-bcd0-214a0d7f3301" data-name="Líneas"><path d="M171.939,166.81A644.35265,644.35265,0,0,1,67.33107,273.57271c-6.53394,5.27527-13.92821,12.49854-11.7605,20.61161,1.62762,6.09171,8.46157,9.60717,14.76545,9.46857s12.16934-3.08218,17.71385-6.08494a414.2277,414.2277,0,0,0,68.5723-46.57765" fill="none" stroke="#5b400c" stroke-linecap="round" stroke-linejoin="round" stroke-width="5.66929"/><path d="M164.97885,229.56015a310.36061,310.36061,0,0,1-44.69372,96.813c-4.94364,7.14039-10.25664,14.20153-13.17051,22.38285s-3.06076,17.89677,1.96,24.98314,16.12229,9.92865,22.76846,4.3382" fill="none" stroke="#5b400c" stroke-linecap="round" stroke-linejoin="round" stroke-width="5.66929"/><path d="M197.81338,245.24818a772.78362,772.78362,0,0,1-76.12084,158.65727" fill="none" stroke="#5b400c" stroke-linecap="round" stroke-linejoin="round" stroke-width="5.66929"/><path d="M195.852,401.71305c-2.93,5.36054-11.64039,5.08782-15.56223.40384s-3.6493-11.78151-1.08113-17.32452,7.0218-9.9408,11.19244-14.40468A207.09784,207.09784,0,0,0,242.937,264.1167" fill="none" stroke="#5b400c" stroke-linecap="round" stroke-linejoin="round" stroke-width="5.66929"/><path d="M92.12319,418.83662a35.90207,35.90207,0,0,1,44.64357-5.73926" fill="none" stroke="#5b400c" stroke-linecap="round" stroke-linejoin="round" stroke-width="5.66929"/><path d="M130.61946,420.48a105.05832,105.05832,0,0,1,50.37709-15.99366" fill="none" stroke="#5b400c" stroke-linecap="round" stroke-linejoin="round" stroke-width="5.66929"/><path d="M188.53651,413.23424a35.54525,35.54525,0,0,1,49.16634-7.57274" fill="none" stroke="#5b400c" stroke-linecap="round" stroke-linejoin="round" stroke-width="5.66929"/><path d="M227.81709,412.71813a26.98959,26.98959,0,0,1,40.89559,7.30354,59.94984,59.94984,0,0,1,55.04844,19.40017" fill="none" stroke="#5b400c" stroke-linecap="round" stroke-linejoin="round" stroke-width="5.66929"/><path d="M318.15612,433.365c22.28167-3.29058,46.02661,7.297,58.4699,26.0711" fill="none" stroke="#5b400c" stroke-linecap="round" stroke-linejoin="round" stroke-width="5.66929"/><path d="M424.15274,460.14969a71.02046,71.02046,0,0,0-55.1689-9.14015" fill="none" stroke="#5b400c" stroke-linecap="round" stroke-linejoin="round" stroke-width="5.66929"/><path d="M260.43486,353.43837a251.66435,251.66435,0,0,1,35.67991-59.99389" fill="none" stroke="#5b400c" stroke-linecap="round" stroke-linejoin="round" stroke-width="5.66929"/><path d="M311.34161,276.86848a96.17532,96.17532,0,0,1,19.63149-33.82929" fill="none" stroke="#5b400c" stroke-linecap="round" stroke-linejoin="round" stroke-width="5.66929"/><path d="M321.82779,258.37474a74.72993,74.72993,0,0,1,51.0229-16.94087" fill="none" stroke="#5b400c" stroke-linecap="round" stroke-linejoin="round" stroke-width="5.66929"/><path d="M364.03873,242.12029a57.85594,57.85594,0,0,1,31.86666,17.76092" fill="none" stroke="#5b400c" stroke-linecap="round" stroke-linejoin="round" stroke-width="5.66929"/><path d="M394.23985-5.96435C385.11433,13.0129,366.5054,78.21795,368.83667,99.14583s9.66768,41.113,19.87874,59.52885c9.9101,17.87311,22.50626,34.184,31.88938,52.33929,6.61413,12.7976,12.27493,27.24918,24.47632,34.90761" fill="none" stroke="#5b400c" stroke-linecap="round" stroke-linejoin="round" stroke-width="5.66929"/><path d="M430.55074,269.19423c-28.98692,2.73121-52.78187,23.00424-78.92138,35.82717-14.32667,7.02806-29.63876,11.89846-43.91758,19.02323-10.88826,5.433-21.08726,12.13249-31.25668,18.81488L228.66915,374.26c-3.84286,2.52517-7.795,5.15758-10.31708,9.00246s-3.24915,9.25993-.48063,12.93135" fill="none" stroke="#5b400c" stroke-linecap="round" stroke-linejoin="round" stroke-width="5.66929"/><path d="M232.781,400.82317c5.4902-7.354,13.62091-12.28952,21.96322-16.11436s17.10778-6.7309,25.212-11.03733c12.76891-6.78517,23.53924-16.85353,36.18325-23.8687,31.937-17.71932,72.99131-14.5703,103.14925-35.17232" fill="none" stroke="#5b400c" stroke-linecap="round" stroke-linejoin="round" stroke-width="5.66929"/><path d="M281.36471,417.379c14.84853-11.83,34.0273-16.31732,51.647-23.38651,12.413-4.98019,24.244-11.34877,36.75972-16.06483,12.78559-4.81775,26.15717-7.86342,39.47986-10.89457l54.98807-12.51075" fill="none" stroke="#5b400c" stroke-linecap="round" stroke-linejoin="round" stroke-width="5.66929"/><path d="M349.8944,435.01739l72.3541-21.84408c17.23978-5.20478,34.49264-10.4131,52.01911-14.551,17.87958-4.22128,36.15333-7.33238,54.52115-6.98379" fill="none" stroke="#5b400c" stroke-linecap="round" stroke-linejoin="round" stroke-width="5.66929"/><path d="M363.72634,431.94579a8.5162,8.5162,0,0,0-6.39071,9.67824" fill="none" stroke="#5b400c" stroke-linecap="round" stroke-linejoin="round" stroke-width="5.66929"/><path d="M418.29754,453.8984c32.43666-4.42749,63.28145-17.36906,95.76966-21.40093,15.34286-1.90409,31.10652-1.83659,45.80971-6.61627,17.81464-5.79115,32.586-18.19647,46.8652-30.321" fill="none" stroke="#5b400c" stroke-linecap="round" stroke-linejoin="round" stroke-width="5.66929"/><path d="M608.43824,393.55953c16.89362-14.93711,29.18084-34.25023,43.27977-51.84943,30.07163-37.53739,68.64724-67.48451,109.38171-93.05914" fill="none" stroke="#5b400c" stroke-linecap="round" stroke-linejoin="round" stroke-width="5.66929"/><path d="M317.13917,286.8213c36.62781-14.14346,73.467-28.34969,111.941-36.18435,27.12728-5.52406,54.808-7.82407,82.08347-12.56254s54.58066-12.11184,78.064-26.77253" fill="none" stroke="#5b400c" stroke-linecap="round" stroke-linejoin="round" stroke-width="5.66929"/><path d="M589.22768,211.30189c64.74751-41.68783,125.40782-95.811,177.4158-152.60259" fill="none" stroke="#5b400c" stroke-linecap="round" stroke-linejoin="round" stroke-width="5.66929"/><path d="M59.90162,291.777c4.75579-.133,8.9174,3.92178,13.66627,3.633a8.21076,8.21076,0,0,0,7.37589-7.40917,8.74809,8.74809,0,0,0-6.04119-8.67529,9.36492,9.36492,0,0,0-10.08326,3.52381" fill="none" stroke="#5b400c" stroke-linecap="round" stroke-linejoin="round" stroke-width="2.83465"/><path d="M112.18234,364.67071a18.39323,18.39323,0,0,1,13.97732,4.72842c1.225,1.1296,2.42915,2.50019,4.07776,2.74255,2.2691.33357,4.20929-1.62153,5.40821-3.57669a17.25032,17.25032,0,0,0,2.71825-10.5374,11.75013,11.75013,0,0,0-5.57541-9.08006c-3.602-2.03458-8.19011-1.61056-11.95248.10953s-6.868,4.57916-9.86949,7.4261" fill="none" stroke="#5b400c" stroke-linecap="round" stroke-linejoin="round" stroke-width="2.83465"/><path d="M183.3068,394.62026l20.68632,2.47384a19.96884,19.96884,0,0,0,5.11468-8.29155,10.34193,10.34193,0,0,0-1.6864-9.31048c-3.21528-3.78783-9.33173-3.81718-13.68632-1.42485s-7.36078,6.59817-10.2151,10.66492" fill="none" stroke="#5b400c" stroke-linecap="round" stroke-linejoin="round" stroke-width="2.83465"/><path d="M221.19064,387.59783c3.6051-3.34317,7.87054-6.35666,12.76108-6.86276s10.39113,2.29446,11.45935,7.09367" fill="none" stroke="#5b400c" stroke-linecap="round" stroke-linejoin="round" stroke-width="2.83465"/><path d="M374.466,447.30732a13.82825,13.82825,0,0,0-3.48871-9.24352,17.57462,17.57462,0,0,1,18.58261-1.84763c2.74486,1.41553,5.30536,4.13675,4.83644,7.18931" fill="none" stroke="#5b400c" stroke-linecap="round" stroke-linejoin="round" stroke-width="2.83465"/><path d="M302.31,307.62988c-1.94134-.83424-4.20379.712-5.06417,2.64191s-.77359,4.12582-.99576,6.2271-.92108,4.37951-2.7375,5.459" fill="none" stroke="#5b400c" stroke-linecap="round" stroke-linejoin="round" stroke-width="5.66929"/><path d="M319.38417,316.25548c-7.44188-1.347-13.42049-7.13223-17.17955-13.69464s-5.71629-13.96878-8.22235-21.10429c-4.179-11.899-9.94164-23.16854-15.686-34.39584-3.27609-6.40313-6.60684-12.8867-11.42019-18.23128-2.18092-2.42162-4.82084-5.779-3.0376-8.50678" fill="none" stroke="#5b400c" stroke-linecap="round" stroke-linejoin="round" stroke-width="5.66929"/><path d="M326.4727,312.369a695.82727,695.82727,0,0,1-42.58009-100.10052" fill="none" stroke="#5b400c" stroke-linecap="round" stroke-linejoin="round" stroke-width="5.66929"/><path d="M206.34466,114.94282l56.25769,96.17643c2.31646,3.96015,4.80688,8.097,8.78862,10.37612s9.90781,1.84878,12.21026-2.11953" fill="none" stroke="#5b400c" stroke-linecap="round" stroke-linejoin="round" stroke-width="5.66929"/><path d="M236.63061,122.6186A733.6163,733.6163,0,0,0,285.971,211.57274" fill="none" stroke="#5b400c" stroke-linecap="round" stroke-linejoin="round" stroke-width="5.66929"/><path d="M236.59206,121.427A196.381,196.381,0,0,1,319.08419,27.3485" fill="none" stroke="#5b400c" stroke-linecap="round" stroke-linejoin="round" stroke-width="5.66929"/><path d="M231.14284,121.31634c9.20206-18.01587,13.20707-38.14434,19.07184-57.50549s14.21487-38.91164,29.689-51.94242" fill="none" stroke="#5b400c" stroke-linecap="round" stroke-linejoin="round" stroke-width="5.66929"/><path d="M251.71036,84.23427a323.315,323.315,0,0,1,61.71645-68.29656" fill="none" stroke="#5b400c" stroke-linecap="round" stroke-linejoin="round" stroke-width="5.66929"/><path d="M216.28948,105.66551a11.1454,11.1454,0,0,1,1.19638,3.9269,3.78774,3.78774,0,0,1-1.69432,3.53259c-1.31248.72068-2.932.28309-4.3593-.16956l-29.65289-9.40426" fill="none" stroke="#5b400c" stroke-linecap="round" stroke-linejoin="round" stroke-width="5.66929"/><path d="M180.28773,99.99973c-8.3176,10.78932-25.25432,13.654-36.65758,6.20034A38.97793,38.97793,0,0,1,83.292,127.54716c-9.96105,12.44841-30.08914,15.09127-42.92615,5.63628-3.82278,9.096-15.276,14.14116-24.56766,10.82212" fill="none" stroke="#5b400c" stroke-linecap="round" stroke-linejoin="round" stroke-width="5.66929"/><path d="M176.61511,96.68481A705.62906,705.62906,0,0,0,6.093,103.6387" fill="none" stroke="#5b400c" stroke-linecap="round" stroke-linejoin="round" stroke-width="5.66929"/><path d="M163.43268,91.95472A805.06846,805.06846,0,0,0,13.38587,65.669" fill="none" stroke="#5b400c" stroke-linecap="round" stroke-linejoin="round" stroke-width="5.66929"/><path d="M152.95725,16.20239q23.01779,42.96342,48.18056,84.73086" fill="none" stroke="#5b400c" stroke-linecap="round" stroke-linejoin="round" stroke-width="5.66929"/><path d="M180.36641,19.508l48.10523,91.57692" fill="none" stroke="#5b400c" stroke-linecap="round" stroke-linejoin="round" stroke-width="5.66929"/><path d="M194.27417,45.03493c-.77942-4.91359,3.53722-9.23129,8.07009-11.28163s9.66406-2.83217,13.779-5.62823c5.0526-3.43318,7.77205-9.33333,11.943-13.79641a27.26222,27.26222,0,0,1,41.3812,1.80439" fill="none" stroke="#5b400c" stroke-linecap="round" stroke-linejoin="round" stroke-width="5.66929"/><path d="M296.72783,43.75276a126.16937,126.16937,0,0,1-28.7693,136.79388" fill="none" stroke="#5b400c" stroke-linecap="round" stroke-linejoin="round" stroke-width="5.66929"/><path d="M245.33182,182.5775c-20.03407-2.323-40.19815-4.67258-59.4841-10.5728s-37.8503-15.61956-51.293-30.65465" fill="none" stroke="#5b400c" stroke-linecap="round" stroke-linejoin="round" stroke-width="5.66929"/><path d="M233.4653,164.79808A265.60123,265.60123,0,0,0,149.485,121.519" fill="none" stroke="#5b400c" stroke-linecap="round" stroke-linejoin="round" stroke-width="5.66929"/><path d="M121.06971,132.75863c13.64107,6.01035,27.36967,12.05078,41.85334,15.57588s29.91234,4.43378,44.19606.17016A99.56438,99.56438,0,0,0,158.773,110.42211" fill="none" stroke="#5b400c" stroke-linecap="round" stroke-linejoin="round" stroke-width="5.66929"/><path d="M179.7451,134.905a46.26647,46.26647,0,0,1-24.02826,2.95042" fill="none" stroke="#5b400c" stroke-linecap="round" stroke-linejoin="round" stroke-width="5.66929"/><path d="M165.71617,125.90469a50.23372,50.23372,0,0,0-11.33633-9.52251" fill="none" stroke="#5b400c" stroke-linecap="round" stroke-linejoin="round" stroke-width="5.66929"/><path d="M21.58418,101.56441A12.44565,12.44565,0,0,1,39.066,111.41074" fill="none" stroke="#5b400c" stroke-linecap="round" stroke-linejoin="round" stroke-width="5.66929"/><path d="M81.40744,97.09706a23.6421,23.6421,0,0,1,23.6763,11.50348" fill="none" stroke="#5b400c" stroke-linecap="round" stroke-linejoin="round" stroke-width="5.66929"/><path d="M80.39035,93.74694a18.59345,18.59345,0,0,0-11.68746-9.6548" fill="none" stroke="#5b400c" stroke-linecap="round" stroke-linejoin="round" stroke-width="5.66929"/><path d="M30.13378,96.88393l-2.37888-8.0608A22.80625,22.80625,0,0,0,16.98459,85.94" fill="none" stroke="#5b400c" stroke-linecap="round" stroke-linejoin="round" stroke-width="5.66929"/><path d="M168.89288,44.212A15.49585,15.49585,0,0,0,155.076,47.29036a22.22893,22.22893,0,0,0-7.35557,12.438c-1.00848,4.40709-.993,9.13928-3.07718,13.15123-2.20275,4.2402-6.40065,7.00863-10.42237,9.58878" fill="none" stroke="#5b400c" stroke-linecap="round" stroke-linejoin="round" stroke-width="5.66929"/></g><g id="86a802f4-d59b-47e6-a557-862f4e9b240b" data-name="Color"><path d="M180.00066,178.06636,67.71885,286.66049c-1.40762,1.36139-2.93651,3.29434-2.09553,5.06281,1.07809,2.26707,4.46752,1.4713,6.69874.32086a661.27931,661.27931,0,0,0,86.15021-53.14024" fill="none" stroke="#f4e2d9" stroke-linecap="round" stroke-linejoin="round" stroke-width="22.67717"/><path d="M114.671,257.06274a352.2867,352.2867,0,0,0,67.96106-69.25934l51.72388,6.71854q23.13986,47.442,49.55131,93.19307a281.00333,281.00333,0,0,1-83.5546,99.76118,211.33411,211.33411,0,0,0-61.70227,18.19415,7.46614,7.46614,0,0,0-7.06357-4.15178l19.18893-39.61c-6.607,9.25358-20.078,15.99556-29.13091,9.11619-5.75383-4.37236-7.17757-12.71838-5.43341-19.73137s6.03407-13.06876,10.04774-19.0783a335.67494,335.67494,0,0,0,46.36813-104.64571" fill="none" stroke="#f4e2d9" stroke-linecap="round" stroke-linejoin="round" stroke-width="22.67717"/><path d="M194.2595,197.12375l-29.34287,8.11444,53.89237-2.27381-41.71315,12.86229a245.57239,245.57239,0,0,1,50.18606-3.14137L187.86319,225.13l17.22532-2.31015c-10.00155,5.9779-15.41041,17.19873-20.26977,27.789L136.938,354.95762a174.0143,174.0143,0,0,0,47.27075-75.5752c2.2195-7.21416,3.99953-14.65424,7.6392-21.26658s9.54692-12.45256,16.95637-13.8914A618.8,618.8,0,0,0,161.5551,375.79971c14.78077-3.1599,21.63795-19.87845,26.11944-34.31356L211.127,265.94474c.95892-3.08872,2.01542-6.33432,4.41817-8.49914s6.60946-2.6774,8.6803-.19319c1.75976,2.111,1.26479,5.23457.64373,7.91179a369.68031,369.68031,0,0,1-43.72466,107.59152c5.91391,2.5622,12.99088.77121,18.26882-2.92779s9.1246-9.052,12.86661-14.29957l38.18232-53.54428c5.1212-7.18161,10.43084-14.87291,10.97956-23.67639.779-12.49782-8.13152-23.339-16.998-32.18139s-18.7673-18.1034-20.88071-30.44584l-18.84789,13.8893A79.33923,79.33923,0,0,1,248.12567,275.745l-31.44438-30.26" fill="none" stroke="#f4e2d9" stroke-linecap="round" stroke-linejoin="round" stroke-width="22.67717"/><path d="M242.80012,271.78347l-22.37748,55.59859" fill="none" stroke="#f4e2d9" stroke-linecap="round" stroke-linejoin="round" stroke-width="22.67717"/><path d="M149.52251,392.81728l9.638-18.44251" fill="none" stroke="#f4e2d9" stroke-linecap="round" stroke-linejoin="round" stroke-width="22.67717"/><path d="M310.26016,51.828a162.52857,162.52857,0,0,1-18.85249,109.27215c-3.2685,5.67531-6.96412,11.36758-7.882,17.85216-1.02,7.20624,1.52775,14.38709,4.03451,21.21984q10.06957,27.44682,20.13913,54.89364a57.3,57.3,0,0,1,90.77506-6.33316" fill="none" stroke="#f4e2d9" stroke-linecap="round" stroke-linejoin="round" stroke-width="22.67717"/><path d="M306.68442,45.93165A158.74043,158.74043,0,0,1,372.35771,31.069c-16.70425,33.91048-15.36348,74.61558-3.47524,110.499s33.46019,67.72246,56.417,97.75472l-17.93068,3.66836" fill="none" stroke="#f4e2d9" stroke-linecap="round" stroke-linejoin="round" stroke-width="22.67717"/><path d="M405.53527,232.99467c-47.31507-47.22648-69.93865-117.94295-58.8214-183.86307-6.95983,2.08165-11.63931,8.86825-13.49829,15.89083s-1.44084,14.41139-1.49391,21.67566A163.6981,163.6981,0,0,1,320.877,144.02741c-4.61508,12.0196-10.66743,23.54111-13.87618,36.01s-3.2406,26.497,3.65816,37.36794a514.01763,514.01763,0,0,0,32.54106-148.433q-8.64128,75.97589-10.609,152.514c18.20774-23.48967,15.71535-56.40424,12.34255-85.93237-3.96078,35.38372,13.55508,72.32121,43.4589,91.64625l-3.55967-5.28554" fill="none" stroke="#f4e2d9" stroke-linecap="round" stroke-linejoin="round" stroke-width="22.67717"/><path d="M402.02721,234.3307c-15.32686-8.40757-31.05993-16.9563-48.34384-19.5767s-36.724,1.85617-47.54491,15.586" fill="none" stroke="#f4e2d9" stroke-linecap="round" stroke-linejoin="round" stroke-width="22.67717"/><path d="M323.1424,69.19125l.95159-23.261" fill="none" stroke="#f4e2d9" stroke-linecap="round" stroke-linejoin="round" stroke-width="22.67717"/><path d="M330.26307,292.65217a193.48085,193.48085,0,0,1,87.91777-25.80351c-28.639,6.38963-59.0453,13.74395-79.323,34.95325l63.088-26.25908c4.73619-1.97134,11.94851-2.881,13.38939,2.04255,1.144,3.90923-2.94648,7.20549-6.47886,9.2336L233.63223,387.4234l45.35591,18.603a756.67131,756.67131,0,0,1,88.71435,24.62108c32.1,10.61382,67.02833,4.991,100.34864-.73823,35.56059-6.11439,72.41343-12.75125,101.97209-33.4449,25.91281-18.14124,43.70913-45.35491,64.69083-69.02655,34.60507-39.0416,78.267-68.75654,121.43937-98.04652" fill="none" stroke="#f4e2d9" stroke-linecap="round" stroke-linejoin="round" stroke-width="22.67717"/><path d="M521.05714,421.37936c14.49434,2.9163,29.6943-1.43983,42.43743-8.93671s23.44173-17.95157,34.002-28.29907L745.82625,238.8027" fill="none" stroke="#f4e2d9" stroke-linecap="round" stroke-linejoin="round" stroke-width="22.67717"/><path d="M272.6537,384.01354c30.59029-11.00927,61.36242-22.10171,89.56171-38.281s53.974-37.88539,70.2298-66.04066c4.34048-7.51779,8.29219-15.79961,15.55863-20.54892,8.83675-5.77563,20.24187-4.88647,30.796-4.65091,55.09445,1.22965,108.59692-21.41533,153.40374-53.49741s82.13145-73.30839,119.07968-114.19529" fill="none" stroke="#f4e2d9" stroke-linecap="round" stroke-linejoin="round" stroke-width="22.67717"/><path d="M293.98783,396.36711a264.30432,264.30432,0,0,0,131.469-81.4566c9.67054-11.09346,18.63372-23.2066,30.96367-31.24131,16.89262-11.00793,37.85672-12.99,57.71537-16.47846a336.42843,336.42843,0,0,0,114.15341-42.50293c50.93742-30.46214,93.06615-74.08223,127.7491-122.245" fill="none" stroke="#f4e2d9" stroke-linecap="round" stroke-linejoin="round" stroke-width="22.67717"/><path d="M754.75705,112.84081a395.64156,395.64156,0,0,0,.96779,97.80967" fill="none" stroke="#f4e2d9" stroke-linecap="round" stroke-linejoin="round" stroke-width="22.67717"/><path d="M737.91517,148.66233l-4.135,92.87448a205.58024,205.58024,0,0,0,.08694-76.63073l-7.0572-1.33584a215.216,215.216,0,0,0-4.29139,86.88421,225.50528,225.50528,0,0,0-20.83275-74.09711l-1.26549,83.84413a197.96161,197.96161,0,0,0-9.54887-61.37937l-8.80661,73.79658,2.53174-58.14773-13.66033,71.40957-6.29331-58.23045-5.45137,70.62151a214.92162,214.92162,0,0,0-7.50689-76.18465l-6.10546,77.34777-6.2199-57.06315A521.30414,521.30414,0,0,0,626.41245,319.041l-1.96612-65.85571-8.53586,77.81909.26228-64.10074-15.01366,77.97493a369.878,369.878,0,0,0-4.39094-78.23252,538.77082,538.77082,0,0,0-6.17467,88.89149l-7.88918-84.248-7.72459,95.712,9.82713-27.36217c-2.20215,21.275-18.28493,39.13588-37.23751,49.04915s-40.586,13.18289-61.80539,15.86861-42.837,5.02221-62.54066,13.34322a271.40867,271.40867,0,0,0,143.52954-41.533l-5.29454-4.80512c-61.00433,25.90105-128.32373,31.85709-194.35783,37.5042,67.287-7.819,133.64173-22.04991,199.8742-36.26033-75.44146,5.15634-151.41977,10.39854-224.53576,29.68723q85.68455-26.93848,173.073-47.99283a1278.33825,1278.33825,0,0,0-176.35322,27.54792q116.14695-31.77953,234.45294-54.81787-90.2324,5.36026-179.69523,19.18394c36.13891-12.89683,74.59051-17.52914,112.33323-24.44551s75.94313-16.5718,107.77914-37.99183a407.55156,407.55156,0,0,1-167.68684,31.434,716.56958,716.56958,0,0,0,116.97769-42.95165c11.34488-5.32726,23.4456-11.87931,28.20414-23.47423" fill="none" stroke="#f4e2d9" stroke-linecap="round" stroke-linejoin="round" stroke-width="22.67717"/><path d="M586.01029,336.68566c-39.70586,27.587-81.318,55.95073-129.16238,62.916-29.44454,4.28661-62.97842,1.344-84.9876,21.36779,16.59137,5.17,34.41745-.57394,50.74669-6.52024,40.8734-14.88407,81.79548-31.68284,115.94428-58.62779,5.63954-4.44985,11.57894-10.29672,11.04313-17.46041-.4453-5.95364-5.54485-10.75011-11.20827-12.63952s-11.812-1.44346-17.74932-.81692C447.739,332.59721,379.7219,363.8872,313.22974,394.74254a139.74817,139.74817,0,0,0,79.44642-32.1691c22.21081-18.669,38.406-44.15442,62.45768-60.383,22.5951-15.24582,50.09125-20.97033,76.80726-26.37668a444.02537,444.02537,0,0,1-79.776,2.55c.64764-8.51806,8.76889-15.76354,17.30538-15.43921a105.70028,105.70028,0,0,0-67.3552,4.14066,332.71681,332.71681,0,0,1,68.59015-2.27473c6.1294.43134,13.61106,2.10768,15.23644,8.03338,1.085,3.95549-1.09679,8.04622-1.17165,12.14713-.11069,6.06384,4.577,11.432,10.15862,13.80425s11.88112,2.298,17.91972,1.73427c44.80322-4.18229,83.27953-32.26172,119.22939-59.32513l90.68407-68.26787" fill="none" stroke="#f4e2d9" stroke-linecap="round" stroke-linejoin="round" stroke-width="22.67717"/><path d="M13.329,132.50751c9.98076,4.6979,23.40921-.70206,27.359-11.00181,11.497,9.5618,30.87941,7.24609,39.80016-4.7551,11.16584,10.81126,30.98129,10.83973,42.17814.06059a231.29351,231.29351,0,0,0,91.2138,54.32047c13.45677,4.22944,28.61177,7.08716,41.24554.81336,8.89185-4.4156,15.17342-12.757,20.10234-21.37489A129.407,129.407,0,0,0,289.26392,60.077c-2.37959-11.06794-6.40983-22.11526-14.011-30.50473s-19.31334-13.68381-30.39013-11.3458S224.66411,31.911,226.89324,43.01017c-13.04317-5.9277-30.29142.448-36.34324,13.43406a40.947,40.947,0,0,0-22.647-33.0452c-.28,16.72538,8.00709,32.51389,18.43732,45.59162s23.1105,24.20118,33.837,37.037c24.75927,29.62792,38.02781,66.925,50.81472,103.35753A1121.78468,1121.78468,0,0,1,166.8609,27.19779" fill="none" stroke="#6eaa6f" stroke-linecap="round" stroke-linejoin="round" stroke-width="22.67717"/><path d="M14.99507,69.98011l135.3311,26.24974c-3.03518,2.10951-7.44544-1.09964-7.902-4.7676s1.58962-7.13087,3.556-10.26067l17.75712-28.26276" fill="none" stroke="#6eaa6f" stroke-linecap="round" stroke-linejoin="round" stroke-width="22.67717"/><path d="M11.82813,87.14125l132.58826,20.30642-128.02519-6.213,77.71727,3.81064L15.37575,124.75676l141.09944-18.52124a102.81109,102.81109,0,0,0,62.59091,46.70542L162.50736,73.71236a131.01742,131.01742,0,0,0-6.17067,42.07127L168.95084,92.1084A64.98214,64.98214,0,0,0,195.727,133.79206a126.40073,126.40073,0,0,1-46.94677-49.01454" fill="none" stroke="#6eaa6f" stroke-linecap="round" stroke-linejoin="round" stroke-width="22.67717"/><path d="M207.70755,62.99778a125.87183,125.87183,0,0,0,49.40193-29.68072c3.34969,9.10929,1.27329,19.50553-3.31816,28.05645s-11.47095,15.61162-18.25859,22.549A164.0827,164.0827,0,0,0,270.732,57.19713l-26.2436,54.44533L279.08151,82.555l-25.42287,37.94666,20.45591-11.8886a95.91026,95.91026,0,0,0-17.65859,31.3543,168.51156,168.51156,0,0,0-37.6161-63.26409A131.70639,131.70639,0,0,0,253.01572,53.344a55.9521,55.9521,0,0,1-23.86584,18.75559" fill="none" stroke="#6eaa6f" stroke-linecap="round" stroke-linejoin="round" stroke-width="22.67717"/><path d="M256.14534,35.71983c5.78658,9.6627,11.6227,19.43335,15.05639,30.16006s4.29649,22.6572.12369,33.11856" fill="none" stroke="#6eaa6f" stroke-linecap="round" stroke-linejoin="round" stroke-width="22.67717"/></g><g id="9defa34e-6225-475f-9b06-d78e67b61146" data-name="sombra" opacity="0.4" style="mix-blend-mode:multiply"><path d="M307.7055,36.308a14.26931,14.26931,0,0,0,2.04864-.74634q2.33853-1.04333,4.677-2.08679c3.218-1.43579,4.09192-4.82788,1.77106-5.34937q1.07373-1.3363,2.14752-2.67249c2.04395-2.5437-.10089-2.93628-2.45868-2.62476q2.15579-2.13629,4.31165-4.27271c1.25616-1.24475,2.08307-3.0343.05157-3.86182-2.0498-.83508-5.05786,1.0752-6.50623,2.29614a349.40709,349.40709,0,0,0-74.20441,87.00171c-2.90454,4.82983,6.24188,2.71924,7.90552-.04724a342.65284,342.65284,0,0,1,52.17438-66.54883,7.67534,7.67534,0,0,0,2.29541-.89856q.97165-.624,1.9433-1.24756a1.35177,1.35177,0,0,0,.278.2821c.00964.02112.01318.0426.02386.0636a1.67541,1.67541,0,0,0,.193.29517,8.32669,8.32669,0,0,0-4.56372,5.51953c-1.61505,1.69495-2.76331,4.007-2.00812,5.37646.42029.76221.80853,1.5354,1.20715,2.30518,10.99969,22.207,4.42029,47.1676-2.017,69.87793-.78906,2.78369,1.1286,2.666,2.96442,1.80823q-1.31067,5.129-2.62134,10.25769c-.92114,3.60449,1.92352,2.45532,4.12793.88318q-3.324,6.87946-7.23907,13.43567-1.86145,1.60986-3.77136,3.16846c-1.57977,1.28589-2.63782,4.46167-2.14923,5.98938q-1.69272,2.44336-3.47394,4.82617a93.05191,93.05191,0,0,1-8.8504,8.28064,6.08716,6.08716,0,0,0-2.3446,5.11316c-.4845.51965-.96014,1.04651-1.452,1.56018-1.11237,1.16162-3.33289,3.63477-2.626,5.47656.65869,1.71606,2.33862,1.39819,3.71088.40112,25.81287-18.75537,52.988-39.48315,62.99347-71.23035C345.065,80.95061,333.98962,50.18743,307.7055,36.308ZM310.05,128.71391q1.73-3.48944,3.32318-7.03406a1.57775,1.57775,0,0,0,.23846.09119c-.55237,1.14514-1.11859,2.28467-1.71478,3.4115a5.09084,5.09084,0,0,0-.81189,3.11426c-.55933.66284-1.115,1.32886-1.68579,1.9812C309.61444,129.756,309.84308,129.23894,310.05,128.71391Zm-16.899,28.81458c.06976-.01807.13788-.03259.21094-.05774.63373-.2179,1.24463-.47339,1.85974-.7218q-2.1904,1.81238-4.42145,3.57275C291.603,159.40386,292.3833,158.47038,293.15106,157.52849Z" fill="#5b400c"/><path d="M155.79077,239.95037a723.36609,723.36609,0,0,0-63.81927,40.11182c-.78455-1.98169-1.98077-3.25562-3.16321-2.012q-2.35336,2.47485-4.70667,4.95a29.30866,29.30866,0,0,1-20.38745,7.06641c-3.98041-.18054-2.30792,9.5509.86963,9.69507a34.52376,34.52376,0,0,0,11.046-1.26758c.57434,1.59253,1.47754,2.80457,2.55188,2.77856-1.53632,2.87036.34332,9.7605,3.18689,8.755,23.093-8.16516,42.31293-23.26184,60.54724-39.2157a295.31359,295.31359,0,0,1-24.84485,54.55322c-1.58569,2.71484,2.12952,11.731,4.39777,7.84766a301.83488,301.83488,0,0,0,30.2746-71.90991,10.03934,10.03934,0,0,0-.3454-3.72314q4.01028-4.17737,7.853-8.53125C161.17187,246.86516,159.5401,237.8593,155.79077,239.95037ZM126.764,268.31023a265.08889,265.08889,0,0,1-44.24152,30.14441Q104.08862,282.56639,126.764,268.31023Z" fill="#5b400c"/><path d="M119.91278,384.865q-.723.94208-1.44592,1.88416c-2.04639-.17114-4.04462.27209-4.63922,1.61365q-3.26971,7.37659-6.53937,14.7533c-1.22852,2.77161,8.1297,5.16455,9.51117,2.5376q.87369-1.6615,1.74744-3.323a3.54065,3.54065,0,0,0,2.72681-1.0957q2.45068-3.37976,4.90143-6.759a1.46357,1.46357,0,0,0,.11505-1.68848q1.41541-2.3833,2.83087-4.76685C131.14136,384.61858,121.86145,382.32585,119.91278,384.865Z" fill="#5b400c"/><path d="M239.32287,267.48577a8.074,8.074,0,0,0-4.70154,5.04956,285.61754,285.61754,0,0,1-50.366,100.033c-1.11548,1.42871-1.24982,3.43689.79657,3.7793,2.20331.36841,4.67328-2.16724,5.8443-3.667a295.8782,295.8782,0,0,0,51.9884-103.70117C243.50995,266.704,240.55749,267.00139,239.32287,267.48577Z" fill="#5b400c"/><path d="M319.08325,313.03484a494.6592,494.6592,0,0,1-22.56451-45.92761q-4.93991-11.5545-9.27869-23.35352a91.42274,91.42274,0,0,1-3.754-10.964c-.10474-.46045-.19025-.928-.26392-1.39746a29.15735,29.15735,0,0,0,6.80444-2.96045c1.22119-.73035,2.21552-2.13672,1.27655-3.40894-.97644-1.32275-3.9563-.56787-5.155-.20056l-2.90405.88977c3.128-1.11255,5.92743-5.04321.78278-5.173-3.4881-.088-7.99469,1.7533-10.20227,4.74866-.4751-.2677-.94226-.55029-1.389-.85937,2.33112-.67078,5.61584-2.08325,4.54578-4.02026L236.66968,147.438a62.70667,62.70667,0,0,0-14.6142-27.27649,2.038,2.038,0,0,0-.72852-.49609q-1.17361-2.12439-2.34723-4.2489c-1.72388-3.12048-10.92426.18921-9.47693,3.19177q9.52853,19.76715,19.057,39.53442c.55792,1.15747,1.96783,1.51538,3.53223,1.35547q3.45428,6.25269,6.90851,12.50537a2.62307,2.62307,0,0,0-.36328-.36548q-1.55164-1.27771-3.10315-2.55518a2.978,2.978,0,0,0-2.16278-.40564,1.49768,1.49768,0,0,0-.19165-1.17969,41.81415,41.81415,0,0,0-22.16309-17.41223c-1.13318-.38831-3.87543.46021-5.85736,1.71509-.09113-.842-.91315-1.3374-2.9646-.90894a42.226,42.226,0,0,0-17.02545,7.51318c-1.811,1.3584-2.37512,2.79-1.90881,3.70007-.03986-.00256-.07892-.002-.11877-.00476-2.23242-.15332-10.2204,4.32239-5.777,6.12158A128.32805,128.32805,0,0,0,224.99,177.5988q3.63052,2.06909,7.35553,3.98877c2.04346,1.05054,10.70044-1.759,8.57336-4.8374q-.96121-1.39124-1.92249-2.78223a1.58592,1.58592,0,0,0,.32849-1.3772q13.12564,23.75958,26.25134,47.519c-2.10535.33594-7.95221,2.20313-5.79065,4.97986a19.17615,19.17615,0,0,0,13.75171,7.30066,17.90767,17.90767,0,0,0,.158,1.839c1.2674,8.97009,6.05365,18.257,9.42,26.61365q6.84586,16.994,14.97687,33.41479a1.1213,1.1213,0,0,0-1.75458.29956q-.20224.32776-.40454.6554a1.04178,1.04178,0,0,0-1.50372.44031l-8.407,13.9353a.957.957,0,0,0-1.41028.43506q-5.81516,10.59009-11.63031,21.1803c-.59735,1.08777-.28662,3.02014.42273,4.82214,1.03467,3.14868,3.5155,6.27246,4.71954,4.322q11.52631-18.67236,23.05255-37.34448a3.2865,3.2865,0,0,0,.38043-1.8606q3.03168,5.91028,6.22687,11.73657-1.02869.64636-2.05725,1.29272-.48074-.561-.96143-1.12231c-1.1131-1.29932-4.2749-3.6748-5.5921-1.41016q-.37088.63757-.74182,1.27539a1.86724,1.86724,0,0,0-.61761.67322q-2.57584,4.59357-5.15161,9.18713c-.02557.04565-.0332.09839-.0545.14575l-.08337.14941c-1.47528,2.64465,4.79126,8.93115,7.14874,6.65015q5.84317-1.87427,11.68634-3.74854c1.51953-.4873,1.14642-2.54126.525-3.60205l-.19336-.3302q1.611-1.01221,3.2218-2.02454c.86072-.54089.778-1.70776.17694-2.9718C317.645,316.24895,319.90887,314.51946,319.08325,313.03484Z" fill="#5b400c"/><path d="M390.22888,261.35625c-9.34448-12.92957-26.5965-19.00037-41.59631-14.58582a6.51115,6.51115,0,0,0-1.38788.27832,74.51077,74.51077,0,0,0-37.18579,27.26611c-1.4436,2.00806.97833,3.6145,3.72083,4.2843-.14008.0835-.28149.16443-.42151.24817-4.04022,2.41321,4.84821,6.19861,7.54218,4.90332a34.08921,34.08921,0,0,0,4.669-2.74854q3.63464-2.11707,7.30444-4.16943c1.95178.85266,4.30536,1.32629,5.48248.8606q9.11288-3.605,18.22565-7.21a2.99691,2.99691,0,0,0,.90741-.05835,87.67192,87.67192,0,0,0,15.68951-5.79248,39.12424,39.12424,0,0,1,8.22528-.39746,2.85517,2.85517,0,0,0,2.55078-.92114,7.45958,7.45958,0,0,0,4.11194.75989C389.38312,263.89958,391.47461,263.07988,390.22888,261.35625Zm-40.76337-2.0658c-.13.01794-.26062.03149-.38824.05713q.94913-.59253,1.90906-1.17029c.36108-.05457.7215-.11646,1.08325-.16174C351.19873,258.43511,350.33374,258.86577,349.46551,259.29045Z" fill="#5b400c"/><path d="M489.09131,387.027q-70.596,18.54382-141.19214,37.08789a1.30093,1.30093,0,0,0-.754.53223q-8.09326,2.14508-16.18646,4.29c-3.0498.80823.65552,10.00879,4.22864,9.06189q79.06622-20.95514,158.13251-41.91C496.37195,395.28008,492.66333,386.08879,489.09131,387.027Z" fill="#5b400c"/><path d="M409.71985,359.88152q-29.28177,10.24255-58.44891,20.80786c-28.30133,9.65344-56.86743,18.48084-85.99786,25.33789-.03516.0061-.069.01624-.10358.02454-1.31555.30945-2.62738.63171-3.94525.933-3.06213.70007-2.99231,10.58545.9248,9.68994.99518-.22742,1.98535-.47241,2.97919-.70459q.41556.18787.83118.37549a2.9341,2.9341,0,0,0,1.74878,1.90088q4.31744,1.34949,8.63489,2.69873c1.30988.40942,2.19843-1.3114,2.53357-3.428.06677-.02539.12213-.04773.191-.07373q9.223-3.48816,18.45819-6.9436,18.93228-7.08325,37.916-14.02832,8.32224-3.04468,16.65564-6.05884c19.60712-6.68628,39.09052-13.75806,58.54718-20.84131C413.70947,368.45574,413.3836,358.6,409.71985,359.88152Z" fill="#5b400c"/><path d="M765.21032,235.98381q-1.62112-6.50757-3.24219-13.0155c-.57751-2.31824-3.07416-.473-3.827.52063q-.28445.37537-.569.75085c-.55756-1.05835-1.6524-1.19641-3.33417.78333q-23.32608,27.4585-48.20319,53.52747-10.92343,9.17889-21.17993,19.12329a50.85674,50.85674,0,0,1-14.64252,4.83008,46.45547,46.45547,0,0,1-12.6189.33728,50.71285,50.71285,0,0,1-6.8653-3.85364c-.99384-.66614-2.00134.26526-2.80615,1.51746a33.40954,33.40954,0,0,1-10.97241-6.87427c-3.23816-3.06177-5.36877,6.10425-4.9256,7.93506a84.24226,84.24226,0,0,1-11.723,65.94751l-13.15485,15.57373c-1.67548,1.98364-2.38593,10.79285,1.6264,7.03455a95.3302,95.3302,0,0,0,8.82355-9.4801,139.62136,139.62136,0,0,1-8.80048,11.68713,101.78157,101.78157,0,0,1-36.16125,27.2301,161.39576,161.39576,0,0,1-28.80017,9.67859q-5.885,1.27863-11.77014,2.55737c-16.94061,3.29321-34.24664,5.21155-51.11743,8.147-18.0036,3.13269-35.72693,7.57825-52.28253,15.46814-2.014.95972-6.575,9.20459-2.00055,8.17578L555.916,434.51872a5.48275,5.48275,0,0,0,2.68634-2.18311c19.29285-6.87952,36.96741-17.19214,51.00629-33.17761,11.7016-13.3241,20.59271-28.75183,28.97266-44.3009l17.17053-20.32764c.37012,1.12866,1.21063,1.50879,2.72382.08252q16.78757-15.82416,32.96307-32.26355a72.54777,72.54777,0,0,0,6.70947-4.83191,134.73209,134.73209,0,0,0,18.58081-19.05322q15.39377-12.06335,31.93011-22.595c.33527.46741.90936.52771,1.82166-.108q5.76434-4.017,11.52869-8.03381a8.04665,8.04665,0,0,0,3.17462-6.12573,5.69405,5.69405,0,0,0-.15582-1.46973A7.64326,7.64326,0,0,0,765.21032,235.98381Zm-18.20807,12.32886q2.39767-2.90332,4.79529-5.80664a6.05674,6.05674,0,0,0,.9538-2.35034q.45392-.516.90778-1.032a4.80133,4.80133,0,0,0,.31488,1.47192,30.5514,30.5514,0,0,1-2.51587,4.90137C749.96905,246.4301,748.47827,247.36052,747.00226,248.31267Zm-11.15973,6.71289c-.02783.27075-.04535.53955-.05133.80249-.56128.38928-1.12872.77-1.68793,1.16211C734.6867,256.33855,735.26037,255.67827,735.84253,255.02556Zm-96.96985,77.19873.0141-.0061a2.81338,2.81338,0,0,0,.30164-.2124l.18018,2.58093q-.70358,1.37677-1.407,2.75354Q638.483,334.79454,638.87268,332.22429Zm11.62524-20.4585a2.551,2.551,0,0,0,.16089.41113,9.4555,9.4555,0,0,0-1.15985,3.09058q-.15024.175-.30463.38135l.821-3.99023C650.17615,311.69475,650.33673,311.73174,650.49792,311.76579Z" fill="#5b400c"/><path d="M173.2926,115.6801a41.72894,41.72894,0,0,0-6.77759.63672,3.67538,3.67538,0,0,0,.70306-.83691c.81976-1.41382.52661-2.86255-1.48364-2.9541q-6.65643-.30359-13.31281-.60693a10.0753,10.0753,0,0,0-1.01575.01184c.37085-3.73633-7.77209-.05371-9.172,1.42493a4.20272,4.20272,0,0,0-1.17413.92871q-4.68851,6.71851-9.377,13.437a1.41577,1.41577,0,0,0-.30676,1.23877,18.18222,18.18222,0,0,1-2.5813,1.03284c-1.673.52625-5.95819,3.47668-2.78119,5.00549,5.90887,2.84363,15.62927,4.95923,20.78943-.10962a6.96272,6.96272,0,0,0,3.00549-.885q11.95724-6.81024,23.91437-13.62061C176.58423,118.75359,177.49475,115.64226,173.2926,115.6801Z" fill="#5b400c"/><path d="M208.52765,100.16313c-.13306-.27722-.273-.55066-.40649-.82751.37506-1.4646.30658-2.83228-.49469-3.4812q-1.00909-.8172-2.01813-1.6344a610.97938,610.97938,0,0,0-41.376-71.42346c-1.95776-2.90259-7.00214,5.46-5.0874,8.29883A602.561,602.561,0,0,1,200.08,101.62712c.0097.04614.01813.09424.03015.13672a17.34986,17.34986,0,0,0,2.98547,5.99658C205.38836,110.78508,209.60418,102.405,208.52765,100.16313Z" fill="#5b400c"/><path d="M351.89215,299.28484c-1.013-1.57422-4.11212-.56738-5.36688-.10315l-7.28156,2.69421-10.35748,1.84424c-1.93634.34485-5.25568,1.31665-5.964,3.46912-.66919,2.03381,1.17188,2.72375,2.97552,2.46252q.38818-.0564.77631-.11255c.7019,1.29688,2.94781,1.09863,4.16052.73657a3.54312,3.54312,0,0,0,2.81024.29907,5.36825,5.36825,0,0,0,4.18231-.34814l2.77478-1.27954a9.65518,9.65518,0,0,0,3.20837-2.21606q2.9187-1.7666,5.8374-3.533C350.85315,302.46868,352.90533,300.85942,351.89215,299.28484Z" fill="#5b400c"/><path d="M290.40729,125.99773a112.68628,112.68628,0,0,0,8.2533-21.02014c.59576-2.12317.73181-5.18518-.74152-7.0321-1.01978-1.27832-2.3205-1.624-3.14435-.377a2.76633,2.76633,0,0,0-.39172-.37268c-1.82385-1.27283-2.84448.3927-3.2135,2.14246a91.41889,91.41889,0,0,1-12.38416,30.45654c-2.77112,4.33252-5.84454,8.87354-9.63751,12.381-2.61975,2.42249-7.34167,4.99658-11.08466,3.87024l-.09247-.12769c-.68634-.94849-1.41095-1.26477-2.07556-1.07251a6.5629,6.5629,0,0,1-.828-.86914c-3.49945-4.453-4.69617,4.86023-2.77454,7.40283q2.48355,3.28619,4.96716,6.57227a20.80761,20.80761,0,0,0,8.212,12.626c.86169.60107,1.85931.83386,2.50964-.26465A379.02984,379.02984,0,0,0,285.791,136.401q1.248-2.56934,2.3667-5.199C288.92517,129.47527,289.66583,127.73638,290.40729,125.99773Z" fill="#5b400c"/><path d="M171.35986,99.469c-1.4574-.14978-2.91046-.25269-4.36053-.32312a6.95037,6.95037,0,0,0-4.32739-2.18994q-2.42413-.08807-4.84821-.17627L161.681,94.801c3.3302-1.70837-2.73938-4.08594-3.91748-4.17651q-.67136-.05164-1.34271-.10315a9.432,9.432,0,0,0-3.55695-1.10559l-15.123-1.60986c-.9021-1.198-3.32227-1.66016-4.37933-1.81738a133.57786,133.57786,0,0,1-22.73035-5.49365c-2.77655-5.61987-11.89349-6.78638-16.77026-3.49268-1.90765,1.28833.08154,3.01465,1.441,3.58325,2.08453.87207,4.188,1.67688,6.29993,2.45129a4.02216,4.02216,0,0,1-.11694.94934,7.70681,7.70681,0,0,1-2.24316,4.21484c-2.23114,2.33105-5.40961,3.19922-8.44751,4-1.12885.29761-2.36047,1.04858-2.61041,1.92847-.53888.11133-1.07733.22461-1.60364.363-6.45581,1.69788,1.123,5.3772,4.58789,4.80249a6.70141,6.70141,0,0,1,2.41046.04565c6.5495,7.2771,4.88477,19.18835-4.15948,24.66846-4.006,2.42725,5.07343,4.3147,6.46265,4.09045a19.197,19.197,0,0,0,2.75226-.65955,5.09774,5.09774,0,0,0,1.071.4668,25.91119,25.91119,0,0,1-2.72.84863c-1.70367.41882-3.41364,1.39844-2.12836,3.2229,1.27,1.803,4.84259,1.835,6.71619,1.57983,1.34692-.18359,2.67615-.428,3.99481-.70447a7.26316,7.26316,0,0,0,3.5097.70569c.40314-.03821.8009-.09863,1.20117-.149l.01251.01831c.03882-.01025.076-.0238.11481-.03406,11.66052-1.50513,22.01752-8.13208,26.40753-19.43506a1.96166,1.96166,0,0,0-.68652-2.42883,46.76575,46.76575,0,0,1,7.965-4.2113,9.9619,9.9619,0,0,0,2.02979-.386c.681-.21362,1.365-.39746,2.04846-.58667.15479.04749.30981.09888.46454.144a2.41054,2.41054,0,0,0,.76563,1.70459c1.36505,1.5481,4.5567,1.52368,6.35266,1.2887l15.4693-2.02332c1.644-.21509,3.09375-1.23132,2.34906-2.90063a1.80126,1.80126,0,0,0-.12335-.217C178.37744,102.983,174.72406,99.81462,171.35986,99.469Zm-61.86658-9.64539c.06818.00891.13739.01819.19739.02466q2.0658.21973,4.13153.4397c.5238,1.55591,3.44629,2.238,4.64661,2.33032q6.25085.4801,12.50171.96057-7.0426.926-14.08508,1.85168a43.48274,43.48274,0,0,0-8.97491,1.04224,25.83764,25.83764,0,0,0-5.149-1.96924A18.33343,18.33343,0,0,0,109.49328,89.82366Zm32.64948,7.345c-.06854.03516-.11.07251-.17059.10815q-.27942-.11884-.57837-.21558c.7569-.70312.46869-1.77783-.33142-2.68506-.008-.009-.01953-.01489-.02765-.02393l5.73846.44092Q144.458,95.98094,142.14276,97.16863Zm-4.10205,5.70166a1.57015,1.57015,0,0,0,.18353-.98633q1.52463-.167,3.04938-.33423a3.19065,3.19065,0,0,0,2.19525-1.07324c.26154.12817.52417.24292.78186.34741a57.13042,57.13042,0,0,0-6.21631,2.05713Z" fill="#5b400c"/><path d="M411.94378,187.68816a147.57315,147.57315,0,0,1-41.02008-82.52368,143.66445,143.66445,0,0,1,.40875-42.47778,3.94082,3.94082,0,0,0,2.04144-1.92957q8.80289-25.92426,17.60583-51.84875c1.2254-3.60889-8.10931-1.78955-9.3363.24756a153.20269,153.20269,0,0,0-10.41711,20.70984,2.31857,2.31857,0,0,0-.5741,1.03137l-.1897.83887a149.40347,149.40347,0,0,0-9.4845,74.13586,150.17857,150.17857,0,0,0,41.8949,85.34753C405.24359,193.62712,414.45636,190.24016,411.94378,187.68816Z" fill="#5b400c"/></g><g id="f6684110-803d-48f1-a6c6-1931a8519a00" data-name="Líneas copia"><path d="M69.98327,306.49138c-7.05518.00049-15.10645-3.92139-17.15137-11.57568-2.5874-9.68213,5.438-17.67041,12.71826-23.54834A641.61878,641.61878,0,0,0,169.69763,165.07488a2.83451,2.83451,0,0,1,4.48242,3.4707A647.28806,647.28806,0,0,1,69.11169,275.77849c-5.9458,4.80029-12.54687,11.147-10.80225,17.67383,1.31592,4.92627,7.15039,7.44678,11.96387,7.3667,5.60254-.123,10.9668-2.78711,16.42676-5.74365a411.97121,411.97121,0,0,0,68.10254-46.2583,2.83432,2.83432,0,1,1,3.63867,4.34668,417.61206,417.61206,0,0,1-69.0415,46.897c-5.85205,3.16895-12.13965,6.27539-19.00146,6.42627C70.26062,306.48992,70.12146,306.49138,69.98327,306.49138Z" fill="#5b400c"/><path d="M123.31775,383.86736a19.22506,19.22506,0,0,1-2.44092-.15771,20.73762,20.73762,0,0,1-14.11523-8.332c-5.05811-7.13867-5.92432-17.44629-2.31738-27.57275,2.69922-7.57812,7.30615-14.165,11.76123-20.53564q.87744-1.25537,1.749-2.50977a305.90173,305.90173,0,0,0,44.28467-95.92627,2.83457,2.83457,0,0,1,5.47949,1.4541,311.55717,311.55717,0,0,1-45.103,97.69971q-.87671,1.26636-1.76465,2.53125c-4.23926,6.0625-8.62354,12.33105-11.06592,19.189-2.98779,8.38818-2.38867,16.75977,1.60254,22.39307A15.18745,15.18745,0,0,0,121.598,378.0866a10.762,10.762,0,0,0,8.42041-2.17871,2.83478,2.83478,0,0,1,3.64941,4.33887A15.88591,15.88591,0,0,1,123.31775,383.86736Z" fill="#5b400c"/><path d="M121.68982,406.7404a2.83512,2.83512,0,0,1-2.39648-4.34424,770.23007,770.23007,0,0,0,75.84131-158.07471,2.8345,2.8345,0,1,1,5.35742,1.85352,775.84837,775.84837,0,0,1-76.3999,159.23975A2.83231,2.83231,0,0,1,121.68982,406.7404Z" fill="#5b400c"/><path d="M188.34363,408.51872a13.39,13.39,0,0,1-10.22705-4.582c-4.26318-5.0918-4.84424-13.07422-1.47949-20.33643,2.49316-5.38232,6.50732-9.6416,10.38965-13.76074l1.30322-1.38672a205.068,205.068,0,0,0,51.81152-104.80664,2.83476,2.83476,0,0,1,5.59082.94141,210.79427,210.79427,0,0,1-53.25977,107.73535l-1.32031,1.40527c-3.73584,3.96387-7.26465,7.7085-9.37109,12.25537-2.00439,4.32568-2.57031,10.42871.68213,14.31348a7.99625,7.99625,0,0,0,6.69873,2.51221,5.23673,5.23673,0,0,0,4.20264-2.45605,2.83477,2.83477,0,0,1,4.97461,2.71973,10.75059,10.75059,0,0,1-8.62012,5.37842Q189.0299,408.51872,188.34363,408.51872Z" fill="#5b400c"/><path d="M92.12292,421.67107a2.83447,2.83447,0,0,1-2.04346-4.79834,38.736,38.736,0,0,1,48.168-6.19238,2.83437,2.83437,0,1,1-2.96094,4.834,33.06854,33.06854,0,0,0-41.11914,5.28613A2.826,2.826,0,0,1,92.12292,421.67107Z" fill="#5b400c"/><path d="M130.62195,423.31511a2.83489,2.83489,0,0,1-1.51562-5.23193A107.57243,107.57243,0,0,1,180.85,401.65544a2.83484,2.83484,0,1,1,.293,5.66211,101.88329,101.88329,0,0,0-49.01025,15.55957A2.8227,2.8227,0,0,1,130.62195,423.31511Z" fill="#5b400c"/><path d="M188.53454,416.069a2.835,2.835,0,0,1-2.2666-4.53467,38.37951,38.37951,0,0,1,53.08691-8.17627,2.83434,2.83434,0,1,1-3.30371,4.60645,32.71205,32.71205,0,0,0-45.24609,6.96924A2.82984,2.82984,0,0,1,188.53454,416.069Z" fill="#5b400c"/><path d="M323.76257,442.25652a2.826,2.826,0,0,1-2.147-.98193,56.903,56.903,0,0,0-52.39307-18.46436,2.83852,2.83852,0,0,1-2.97559-1.39014,24.15521,24.15521,0,0,0-36.60059-6.53662,2.83463,2.83463,0,0,1-3.6582-4.33105,29.82058,29.82058,0,0,1,44.14111,6.3623,62.72686,62.72686,0,0,1,55.77734,20.65479,2.83446,2.83446,0,0,1-2.144,4.687Z" fill="#5b400c"/><path d="M376.62829,462.27117a2.83155,2.83155,0,0,1-2.36523-1.269c-11.75-17.72852-34.65332-27.936-55.69287-24.833a2.8346,2.8346,0,0,1-.82812-5.6084,63.58835,63.58835,0,0,1,61.24658,27.30957,2.83511,2.83511,0,0,1-2.36035,4.40088Z" fill="#5b400c"/><path d="M424.15027,462.98454a2.821,2.821,0,0,1-1.5376-.45508,68.41882,68.41882,0,0,0-52.93848-8.771,2.8344,2.8344,0,1,1-1.38086-5.498,74.18239,74.18239,0,0,1,57.39941,9.50928,2.8349,2.8349,0,0,1-1.54248,5.21484Z" fill="#5b400c"/><path d="M260.434,356.27361a2.83652,2.83652,0,0,1-2.61279-3.93213,254.04769,254.04769,0,0,1,36.082-60.67041,2.83469,2.83469,0,1,1,4.42285,3.54688,248.38359,248.38359,0,0,0-35.27734,59.31689A2.83562,2.83562,0,0,1,260.434,356.27361Z" fill="#5b400c"/><path d="M311.34216,279.70378a2.83688,2.83688,0,0,1-2.69092-3.728,99.47141,99.47141,0,0,1,20.21191-34.82959,2.83465,2.83465,0,1,1,4.21973,3.78613,93.76164,93.76164,0,0,0-19.05078,32.82861A2.83627,2.83627,0,0,1,311.34216,279.70378Z" fill="#5b400c"/><path d="M321.82947,261.20964a2.83493,2.83493,0,0,1-1.812-5.01611,77.6051,77.6051,0,0,1,52.979-17.59082,2.83482,2.83482,0,0,1-.292,5.66211,71.8748,71.8748,0,0,0-49.06592,16.291A2.82362,2.82362,0,0,1,321.82947,261.20964Z" fill="#5b400c"/><path d="M395.90613,262.7155a2.8272,2.8272,0,0,1-2.09668-.92578,54.86848,54.86848,0,0,0-30.292-16.8833,2.83452,2.83452,0,1,1,1.043-5.57227,60.57082,60.57082,0,0,1,33.44043,18.63818,2.83446,2.83446,0,0,1-2.09473,4.74316Z" fill="#5b400c"/><path d="M445.078,248.75652a2.82045,2.82045,0,0,1-1.50391-.43408c-11.02637-6.9209-16.87744-18.72266-22.53613-30.13574-.97949-1.97559-1.95459-3.94238-2.95117-5.87158-5.03809-9.74756-11.15381-19.17187-17.06787-28.28564-5.02148-7.73828-10.21387-15.73975-14.78271-23.98047-11.18311-20.16895-17.98486-40.5542-20.2168-60.58936-2.3999-21.54248,16.083-86.7251,25.66553-106.65234a2.8369,2.8369,0,0,1,3.7832-1.32617,2.83519,2.83519,0,0,1,1.32617,3.7832c-9.11621,18.957-27.40186,83.2666-25.14014,103.56738,2.14795,19.28662,8.72217,38.958,19.54,58.46826,4.47412,8.06885,9.61182,15.98633,14.58057,23.64355,5.98877,9.229,12.18164,18.77246,17.34814,28.769,1.01172,1.95654,2.001,3.95166,2.99414,5.95557,5.30957,10.709,10.79932,21.78223,20.4707,27.85254a2.83487,2.83487,0,0,1-1.50977,5.23584Z" fill="#5b400c"/><path d="M217.87341,399.029a2.82952,2.82952,0,0,1-2.26514-1.12842c-3.22705-4.27979-3.07324-10.93848.37354-16.19287,2.88623-4.39893,7.26611-7.27734,11.13086-9.81689l47.78564-31.40039c10.07373-6.61963,20.49023-13.46484,31.54785-18.98242,7.39795-3.69092,15.145-6.81592,22.63672-9.83789,7.07227-2.853,14.38525-5.80273,21.29785-9.19385,7.74414-3.79883,15.45215-8.36182,22.90625-12.7749,17.73682-10.50049,36.07715-21.35791,56.99756-23.32959a2.83478,2.83478,0,1,1,.53223,5.64453c-19.65674,1.85205-36.65039,11.9126-54.6416,22.56348-7.54834,4.46875-15.35352,9.08936-23.29736,12.98633-7.09766,3.48193-14.50781,6.4707-21.67383,9.36133-7.38916,2.981-15.03027,6.063-22.22656,9.65381-10.75635,5.36719-21.03027,12.11816-30.96582,18.64746l-47.78564,31.40039c-3.57031,2.34619-7.2627,4.772-9.50391,8.18848-1.82129,2.77637-2.60791,6.98975-.5874,9.66992a2.83508,2.83508,0,0,1-2.26123,4.5415Z" fill="#5b400c"/><path d="M232.77868,403.65788a2.835,2.835,0,0,1-2.269-4.53076c4.97607-6.665,12.30176-12.06543,23.05322-16.99512,3.35352-1.5376,6.80127-2.93994,10.13574-4.29639a161.90868,161.90868,0,0,0,14.92773-6.66748c6.43555-3.41943,12.53027-7.82617,18.42432-12.0874a178.20369,178.20369,0,0,1,17.71387-11.75635c15.26318-8.46826,32.61328-12.29492,49.39209-15.99561,19.49023-4.29883,37.8999-8.35937,53.5332-19.03906a2.83489,2.83489,0,1,1,3.19824,4.68164c-16.53955,11.29834-36.35107,15.668-55.51025,19.89355-16.38232,3.61328-33.32227,7.34912-47.86328,15.4165A174.098,174.098,0,0,0,300.37243,363.675a166.25984,166.25984,0,0,1-19.08594,12.5,166.28438,166.28438,0,0,1-15.45117,6.91162c-3.27832,1.334-6.66846,2.71289-9.90967,4.19873-9.85449,4.51855-16.4873,9.35889-20.873,15.2334A2.83049,2.83049,0,0,1,232.77868,403.65788Z" fill="#5b400c"/><path d="M281.36657,420.214a2.83513,2.83513,0,0,1-1.76807-5.05225c11.34473-9.03857,25.12793-13.92871,38.45752-18.65771,4.59961-1.63184,9.35547-3.31934,13.8999-5.14258,5.60693-2.249,11.21826-4.84326,16.645-7.35156,6.52881-3.01758,13.27979-6.13818,20.1709-8.73486,12.99072-4.895,26.64551-8.002,39.85059-11.00635L463.61072,351.758a2.8348,2.8348,0,0,1,1.25781,5.52832L409.88025,369.797c-13.019,2.96191-26.48145,6.0249-39.10937,10.7832-6.69824,2.52393-13.35449,5.60059-19.7915,8.57617-5.4917,2.53809-11.17041,5.16309-16.91211,7.4668-4.65137,1.86621-9.46289,3.57324-14.11572,5.22363-12.88965,4.57324-26.21777,9.30225-36.8208,17.74951A2.82248,2.82248,0,0,1,281.36657,420.214Z" fill="#5b400c"/><path d="M349.89343,437.85271a2.83521,2.83521,0,0,1-.81836-5.54932l72.354-21.84375c16.99072-5.12988,34.56006-10.43408,52.187-14.59619,21.68555-5.11963,39.22852-7.36572,55.22656-7.05908a2.83446,2.83446,0,0,1,2.78027,2.8877,2.80606,2.80606,0,0,1-2.8877,2.78027c-15.71875-.29443-32.31494,1.833-53.81641,6.90869-17.45752,4.12207-34.94238,9.40088-51.85107,14.50635l-72.354,21.84375A2.84969,2.84969,0,0,1,349.89343,437.85271Z" fill="#5b400c"/><path d="M357.33288,444.45964a2.836,2.836,0,0,1-2.77393-2.26514,11.345,11.345,0,0,1,8.60156-13.02588,2.83441,2.83441,0,1,1,1.13184,5.55469,5.693,5.693,0,0,0-4.17969,6.33057,2.83767,2.83767,0,0,1-2.77979,3.40576Z" fill="#5b400c"/><path d="M418.29431,456.73357a2.83481,2.83481,0,0,1-.37988-5.64355c15.67334-2.13965,31.31592-6.38379,46.44385-10.48779,16.00391-4.34229,32.55273-8.832,49.35986-10.918,4.48682-.55664,9.05762-.95117,13.478-1.33252,10.64844-.91846,21.65967-1.86865,31.8042-5.1665,17.54395-5.70312,32.6123-18.49756,45.90674-29.78564a2.83453,2.83453,0,1,1,3.66943,4.32129c-13.69385,11.62793-29.21533,24.80713-47.82324,30.856-10.7627,3.499-22.103,4.47705-33.07031,5.42334-4.36816.377-8.88525.7666-13.2666,1.31006-16.4082,2.03662-32.76025,6.47314-48.57373,10.76318-15.30176,4.15186-31.12451,8.44482-47.16162,10.63379A2.88616,2.88616,0,0,1,418.29431,456.73357Z" fill="#5b400c"/><path d="M608.43933,396.39421a2.83447,2.83447,0,0,1-1.87842-4.958c11.91455-10.53516,21.74561-23.61816,31.25342-36.27051,3.78027-5.02979,7.689-10.23145,11.69141-15.228,26.64844-33.26416,62.6582-63.90967,110.0874-93.6875a2.83457,2.83457,0,0,1,3.01367,4.80176c-46.88281,29.43457-82.43115,59.66895-108.67627,92.43066-3.94775,4.92773-7.83008,10.09326-11.584,15.08936-9.67773,12.87793-19.68457,26.19482-32.03076,37.11133A2.82154,2.82154,0,0,1,608.43933,396.39421Z" fill="#5b400c"/><path d="M317.13952,289.65691a2.83521,2.83521,0,0,1-1.02148-5.48c36.17627-13.96924,73.58447-28.41406,112.39648-36.31787,15.54395-3.165,31.48486-5.30713,46.90088-7.37891,11.59082-1.55762,23.57617-3.16846,35.2627-5.19873,32.88281-5.71191,57.36572-14.0957,77.04883-26.38379a2.83436,2.83436,0,1,1,3.002,4.80859c-26.70215,16.67041-57.9209,23.48535-79.08008,27.16113-11.79443,2.04883-23.83447,3.667-35.478,5.23145-15.32324,2.05908-31.168,4.18848-46.52539,7.31592C391.30066,261.22331,354.118,275.58074,318.16,289.466A2.83053,2.83053,0,0,1,317.13952,289.65691Z" fill="#5b400c"/><path d="M589.23034,214.13689a2.83489,2.83489,0,0,1-1.53711-5.21826c59.8457-38.53223,121.00293-91.13916,176.85986-152.13379a2.835,2.835,0,0,1,4.18164,3.8291C712.5531,121.96208,651.01111,174.89372,590.76257,213.68523A2.82128,2.82128,0,0,1,589.23034,214.13689Z" fill="#5b400c"/><path d="M73.07409,296.842a17.78192,17.78192,0,0,1-7.01123-1.9375c-2.10742-.90869-4.10791-1.78027-6.12158-1.71045a1.41754,1.41754,0,0,1-.0791-2.834c2.65527-.05957,5.02637.95068,7.32324,1.94189,2.16992.936,4.21631,1.812,6.29639,1.69336a6.8,6.8,0,0,0,6.04834-6.09668,7.31053,7.31053,0,0,0-5.04346-7.21826,7.9926,7.9926,0,0,0-8.51123,2.98828A1.41712,1.41712,0,0,1,63.663,282.03a10.7866,10.7866,0,0,1,11.65576-4.05957,10.10838,10.10838,0,0,1,7.03857,10.13232,9.62605,9.62605,0,0,1-8.70361,8.72168C73.45935,296.8366,73.266,296.842,73.07409,296.842Z" fill="#5b400c"/><path d="M130.73913,373.59587a4.8649,4.8649,0,0,1-.708-.05176,8.14183,8.14183,0,0,1-4.31934-2.61963c-.17139-.16309-.3418-.32568-.5127-.4834a17.00288,17.00288,0,0,0-12.88574-4.35937,1.41719,1.41719,0,1,1-.26172-2.82227,19.87041,19.87041,0,0,1,15.06885,5.09766c.18213.168.36377.34082.54639.51514a5.93284,5.93284,0,0,0,2.77686,1.86719c1.87256.271,3.53174-2.16162,3.99414-2.91553a15.8712,15.8712,0,0,0,2.51514-9.6582,10.30451,10.30451,0,0,0-4.86182-7.98437c-2.88721-1.63037-6.87451-1.56836-10.666.165-3.44238,1.57324-6.33154,4.17578-9.4834,7.165a1.41713,1.41713,0,1,1-1.9502-2.05664c3.33887-3.167,6.41553-5.93164,10.25488-7.68652,4.61572-2.11035,9.56445-2.13086,13.23926-.05469a13.17156,13.17156,0,0,1,6.28857,10.17627,18.70922,18.70922,0,0,1-2.91992,11.416C135.16,372.068,132.96423,373.59587,130.73913,373.59587Z" fill="#5b400c"/><path d="M203.993,398.5114a1.40488,1.40488,0,0,1-.16846-.01025l-20.686-2.47363a1.41727,1.41727,0,1,1,.33691-2.81445l19.97119,2.38818a17.75025,17.75025,0,0,0,4.29346-7.17041,8.91415,8.91415,0,0,0-1.39941-8.022c-2.77295-3.26514-8.23975-3.12256-11.92285-1.09961-4.15479,2.28271-7.12109,6.50879-9.73779,10.2373a1.4175,1.4175,0,1,1-2.32031-1.62891c2.79443-3.981,5.96143-8.49268,10.69287-11.09277,4.6167-2.53613,11.59912-2.78418,15.44922,1.74951a11.77115,11.77115,0,0,1,1.97363,10.59961,21.11048,21.11048,0,0,1-5.45605,8.89746A1.41729,1.41729,0,0,1,203.993,398.5114Z" fill="#5b400c"/><path d="M245.40954,389.24626a1.41755,1.41755,0,0,1-1.38184-1.10937c-.91357-4.10449-5.876-6.4082-9.93018-5.99219-3.7959.39307-7.59082,2.45605-11.94287,6.49219a1.41728,1.41728,0,1,1-1.92773-2.07812c4.82568-4.47559,9.14063-6.77393,13.57861-7.2334,5.251-.54834,11.70752,2.436,12.98877,8.19531a1.41837,1.41837,0,0,1-1.38477,1.72559Z" fill="#5b400c"/><path d="M374.46667,448.72478h-.01221a1.418,1.418,0,0,1-1.40576-1.4292,12.4085,12.4085,0,0,0-3.12744-8.28662,1.41672,1.41672,0,0,1,.17139-2.05225,19.09983,19.09983,0,0,1,20.1167-2.00049c2.95752,1.52539,6.19531,4.70947,5.58789,8.66455a1.41733,1.41733,0,1,1-2.80176-.43066c.35449-2.30908-1.79639-4.53418-4.08545-5.71436a16.24925,16.24925,0,0,0-15.89551.86426,15.306,15.306,0,0,1,2.86914,8.979A1.41792,1.41792,0,0,1,374.46667,448.72478Z" fill="#5b400c"/><path d="M293.515,324.79265a2.83487,2.83487,0,0,1-1.4502-5.272c.689-.40918,1.18652-1.61914,1.36621-3.31934.05078-.48389.084-.97217.11768-1.46045a16.06881,16.06881,0,0,1,1.1084-5.623c1.41406-3.17334,5.16992-5.64062,8.77246-4.09229a2.835,2.835,0,1,1-2.23926,5.209l-.002-.001a2.02607,2.02607,0,0,0-1.35352,1.19238,11.51237,11.51237,0,0,0-.63037,3.7041c-.03857.55762-.07715,1.11523-.13574,1.6665-.47949,4.54736-2.499,6.64209-4.1084,7.59814A2.82325,2.82325,0,0,1,293.515,324.79265Z" fill="#5b400c"/><path d="M319.38757,319.0905a2.81912,2.81912,0,0,1-.5083-.0459c-7.44385-1.34717-14.41846-6.8418-19.13428-15.07471-3.019-5.271-4.916-11.01514-6.75049-16.57031-.55225-1.67285-1.10449-3.3457-1.68652-5.00342-4.12354-11.73926-9.9248-23.07861-15.53516-34.04443-3.14893-6.15527-6.40527-12.52-11.00293-17.62549-1.76221-1.95605-6.44336-7.15332-3.30371-11.95508a2.83469,2.83469,0,0,1,4.74512,3.10254c-.28027.42871-.29346,1.65625,2.771,5.05859,5.09473,5.65723,8.52246,12.35742,11.8374,18.8374,5.69629,11.13379,11.58691,22.64648,15.83691,34.74756.59424,1.69141,1.15771,3.39795,1.72168,5.105,1.82617,5.53125,3.55127,10.75537,6.28613,15.52979,3.88184,6.77686,9.43115,11.26563,15.22461,12.314a2.83492,2.83492,0,0,1-.50146,5.62451Z" fill="#5b400c"/><path d="M326.475,315.20427a2.8337,2.8337,0,0,1-2.51611-1.52539,700.46069,700.46069,0,0,1-42.75342-100.5083,2.83471,2.83471,0,0,1,5.37451-1.80469,694.80388,694.80388,0,0,0,42.40625,99.69287,2.8361,2.8361,0,0,1-2.51123,4.14551Z" fill="#5b400c"/><path d="M276.7323,225.7199a13.74633,13.74633,0,0,1-6.74951-1.76465c-4.74463-2.71582-7.5625-7.53369-9.82715-11.40479l-56.25781-96.17627a2.83459,2.83459,0,1,1,4.89355-2.8623l56.25781,96.17627c2.02441,3.46045,4.31885,7.38281,7.75,9.34717,2.68018,1.53369,6.91162,1.39551,8.35059-1.08252a2.83463,2.83463,0,0,1,4.90332,2.8457A10.42526,10.42526,0,0,1,276.7323,225.7199Z" fill="#5b400c"/><path d="M285.97351,214.40788a2.83189,2.83189,0,0,1-2.37988-1.2915,738.79261,738.79261,0,0,1-49.53125-89.29785,2.83474,2.83474,0,0,1,5.13672-2.39941,733.074,733.074,0,0,0,49.14941,88.61035,2.83515,2.83515,0,0,1-2.375,4.37842Z" fill="#5b400c"/><path d="M236.59118,124.26238a2.83655,2.83655,0,0,1-2.61768-3.92041,198.615,198.615,0,0,1,83.69287-95.44824,2.83472,2.83472,0,1,1,2.83594,4.90918,192.917,192.917,0,0,0-81.2915,92.709A2.83593,2.83593,0,0,1,236.59118,124.26238Z" fill="#5b400c"/><path d="M231.1405,124.152a2.836,2.836,0,0,1-2.522-4.125c6.64209-13.00439,10.62646-27.50879,14.47949-41.53564,1.39893-5.09277,2.8457-10.35889,4.40381-15.50244,5.21436-17.21338,13.40186-38.82666,30.57617-53.28906a2.83467,2.83467,0,1,1,3.65137,4.33691c-16.03369,13.502-23.81445,34.13184-28.80176,50.5957-1.53662,5.07275-2.97314,10.30273-4.36279,15.36084-3.92871,14.30225-7.99121,29.09131-14.89746,42.61279A2.835,2.835,0,0,1,231.1405,124.152Z" fill="#5b400c"/><path d="M251.70788,87.069a2.83515,2.83515,0,0,1-2.3501-4.416,325.46463,325.46463,0,0,1,62.2583-68.89648,2.8347,2.8347,0,1,1,3.62109,4.3623,319.806,319.806,0,0,0-61.17432,67.69629A2.83065,2.83065,0,0,1,251.70788,87.069Z" fill="#5b400c"/><path d="M214.16931,116.34246a11.8323,11.8323,0,0,1-3.59375-.68506l-29.65332-9.4043a2.83477,2.83477,0,0,1,1.71387-5.4043l29.65332,9.4043c1.56982.498,2.01025.45605,2.1377.38721a1.39161,1.39161,0,0,0,.22705-.91309,9.13227,9.13227,0,0,0-.95361-2.90625,2.83494,2.83494,0,0,1,5.17773-2.31055,13.67594,13.67594,0,0,1,1.439,4.94727,6.59108,6.59108,0,0,1-3.16113,6.15186A6.1173,6.1173,0,0,1,214.16931,116.34246Z" fill="#5b400c"/><path d="M21.73865,147.84246a20.44938,20.44938,0,0,1-6.894-1.16748,2.83465,2.83465,0,0,1,1.90723-5.33887c7.92578,2.83105,17.73975-1.4917,21.001-9.251a2.83419,2.83419,0,0,1,4.29443-1.18408c11.7085,8.623,29.94678,6.22852,39.03125-5.125a2.8342,2.8342,0,0,1,3.86768-.53076,36.14312,36.14312,0,0,0,55.9502-19.79492,2.83433,2.83433,0,0,1,4.28467-1.623c10.12109,6.61523,25.478,4.019,32.86182-5.55811a2.83462,2.83462,0,0,1,4.49023,3.46094c-8.50146,11.02637-24.83838,14.56641-37.271,8.63037a41.79743,41.79743,0,0,1-61.479,20.92725c-10.603,11.11719-29.10254,13.68213-42.3667,5.96924A23.8095,23.8095,0,0,1,21.73865,147.84246Z" fill="#5b400c"/><path d="M6.08972,106.4738a2.83477,2.83477,0,0,1-.4541-5.63232,708.29839,708.29839,0,0,1,171.20752-6.98193,2.83438,2.83438,0,0,1-.45605,5.65039A702.66567,702.66567,0,0,0,6.55066,106.43621,2.84843,2.84843,0,0,1,6.08972,106.4738Z" fill="#5b400c"/><path d="M163.434,94.79021a2.84938,2.84938,0,0,1-.75293-.10205A803.58739,803.58739,0,0,0,13.16345,68.4948a2.83444,2.83444,0,0,1,.44531-5.65137A809.26445,809.26445,0,0,1,164.184,89.22136a2.83519,2.83519,0,0,1-.75,5.56885Z" fill="#5b400c"/><path d="M201.1405,103.76824a2.83335,2.83335,0,0,1-2.43115-1.37207c-16.71924-27.752-32.95312-56.30127-48.25049-84.855a2.83465,2.83465,0,0,1,4.99707-2.67773C170.70886,43.33415,186.89538,71.8,203.56579,99.47038a2.835,2.835,0,0,1-2.42529,4.29785Z" fill="#5b400c"/><path d="M228.474,113.92058a2.8339,2.8339,0,0,1-2.51172-1.51709l-48.105-91.57715a2.83453,2.83453,0,0,1,5.01855-2.63672l48.105,91.57715a2.83612,2.83612,0,0,1-2.50684,4.15381Z" fill="#5b400c"/><path d="M194.27087,47.8698a2.83547,2.83547,0,0,1-2.79639-2.39111c-1.01367-6.39307,4.1416-11.793,9.70117-14.30811a55.93705,55.93705,0,0,1,5.68311-2.09863,30.36192,30.36192,0,0,0,7.67188-3.2915c2.73633-1.85937,4.77783-4.67871,6.939-7.66357a58.2437,58.2437,0,0,1,4.52588-5.72363,30.09685,30.09685,0,0,1,45.68359,1.9917,2.83461,2.83461,0,0,1-4.46289,3.49609,24.42828,24.42828,0,0,0-37.0791-1.6167,53.195,53.195,0,0,0-4.07568,5.17725c-2.35254,3.24951-4.78564,6.60986-8.34473,9.02832a35.07145,35.07145,0,0,1-9.09033,3.98877,51.0765,51.0765,0,0,0-5.11426,1.877c-3.48145,1.5752-6.98145,4.83057-6.438,8.25537a2.83592,2.83592,0,0,1-2.80322,3.27881Z" fill="#5b400c"/><path d="M267.95837,183.381a2.83448,2.83448,0,0,1-1.98633-4.85693,123.33437,123.33437,0,0,0,28.123-133.7207,2.83476,2.83476,0,1,1,5.26563-2.10156A129.00514,129.00514,0,0,1,269.9447,182.569,2.8258,2.8258,0,0,1,267.95837,183.381Z" fill="#5b400c"/><path d="M245.33532,185.41228a2.90943,2.90943,0,0,1-.33008-.019c-19.85791-2.30225-40.39209-4.68311-59.98682-10.67822-22.31787-6.82715-40.00732-17.417-52.57715-31.4751a2.83491,2.83491,0,1,1,4.22656-3.7793c11.86963,13.27588,28.69531,23.313,50.00879,29.8335,19.10156,5.84375,39.37549,8.19434,58.98193,10.46729a2.83489,2.83489,0,0,1-.32324,5.65088Z" fill="#5b400c"/><path d="M233.46325,167.633a2.82033,2.82033,0,0,1-1.7251-.5874,261.18892,261.18892,0,0,0-83.082-42.81592,2.83475,2.83475,0,0,1,1.65723-5.42187,266.84046,266.84046,0,0,1,84.87891,43.74268,2.83489,2.83489,0,0,1-1.729,5.08252Z" fill="#5b400c"/><path d="M186.61706,154.19939a103.19063,103.19063,0,0,1-24.36426-3.11035c-14.77393-3.59619-28.78076-9.76807-42.32617-15.73682a2.83468,2.83468,0,0,1,2.28613-5.188c13.31982,5.86963,27.09375,11.93848,41.38086,15.416,14.269,3.47266,27.32715,3.87988,38.88477,1.21826a96.68671,96.68671,0,0,0-44.67871-33.71387,2.83486,2.83486,0,1,1,1.94629-5.3252,102.32312,102.32312,0,0,1,49.7334,39.17578,2.83471,2.83471,0,0,1-1.5498,4.28564A74.23982,74.23982,0,0,1,186.61706,154.19939Z" fill="#5b400c"/><path d="M162.31433,141.16619a48.73491,48.73491,0,0,1-7.00439-.50537,2.83451,2.83451,0,1,1,.81348-5.61035,43.17757,43.17757,0,0,0,22.54785-2.769,2.83475,2.83475,0,0,1,2.14746,5.24707A48.879,48.879,0,0,1,162.31433,141.16619Z" fill="#5b400c"/><path d="M165.71716,128.73894a2.82637,2.82637,0,0,1-2.12451-.957,47.27779,47.27779,0,0,0-10.6958-8.98389,2.83481,2.83481,0,0,1,2.96582-4.832,52.94817,52.94817,0,0,1,11.97705,10.061,2.83447,2.83447,0,0,1-2.12256,4.71191Z" fill="#5b400c"/><path d="M39.06238,114.24578a2.83478,2.83478,0,0,1-2.81055-2.49463,9.61024,9.61024,0,0,0-13.5-7.60352,2.8346,2.8346,0,0,1-2.335-5.166,15.27957,15.27957,0,0,1,21.46289,12.08887,2.83831,2.83831,0,0,1-2.81738,3.17529Z" fill="#5b400c"/><path d="M105.0863,111.43572a2.83335,2.83335,0,0,1-2.47607-1.4502,20.82181,20.82181,0,0,0-20.7627-10.08838,2.83464,2.83464,0,0,1-.87988-5.60059A26.31721,26.31721,0,0,1,107.55749,107.216a2.835,2.835,0,0,1-2.47119,4.21973Z" fill="#5b400c"/><path d="M80.39245,96.5822a2.83555,2.83555,0,0,1-2.54932-1.5918,15.709,15.709,0,0,0-9.88086-8.16211,2.83481,2.83481,0,0,1,1.48145-5.47266A21.45814,21.45814,0,0,1,82.93786,92.5031a2.83606,2.83606,0,0,1-2.54541,4.0791Z" fill="#5b400c"/><path d="M30.13269,99.71941a2.83592,2.83592,0,0,1-2.71777-2.0332l-2.03906-6.90869a19.91682,19.91682,0,0,0-8.42871-2.00293,2.8346,2.8346,0,0,1,.03662-5.66895h.03857A25.60332,25.60332,0,0,1,29.13806,86.3488a2.83343,2.83343,0,0,1,1.33545,1.67188l2.37891,8.061a2.83713,2.83713,0,0,1-2.71973,3.6377Z" fill="#5b400c"/><path d="M134.22351,85.30339a2.83488,2.83488,0,0,1-1.5332-5.2207c3.52686-2.2627,7.52441-4.82764,9.438-8.51025a25.16658,25.16658,0,0,0,2.01807-7.87012c.22461-1.50391.45654-3.05859.811-4.60645a25.04618,25.04618,0,0,1,8.3418-14.01416,18.323,18.323,0,0,1,16.40332-3.58643,2.83485,2.83485,0,0,1-1.61914,5.43359A12.588,12.588,0,0,0,156.8529,49.4987a19.38207,19.38207,0,0,0-6.36914,10.86182c-.30566,1.33545-.51172,2.7168-.73,4.17871-.479,3.209-.97412,6.52734-2.59473,9.647-2.61084,5.02441-7.48828,8.15381-11.40723,10.668A2.81926,2.81926,0,0,1,134.22351,85.30339Z" fill="#5b400c"/></g></g></svg>